<svg xmlns="http://www.w3.org/2000/svg" xmlns:xlink="http://www.w3.org/1999/xlink" contentStyleType="text/css" data-diagram-type="SEQUENCE" height="333px" preserveAspectRatio="none" style="width:584px;height:333px;background:#FFFFFF;" version="1.1" viewBox="0 0 584 333" width="584px" zoomAndPan="magnify"><title>Call of the Function Block "car" (Step 0)</title><defs/><g><text fill="#000000" font-family="sans-serif" font-size="14" font-weight="bold" lengthAdjust="spacing" textLength="314.9385" x="130.6816" y="40.6357">Call of the Function Block "car" (Step 0)</text><g><title>MAIN .PRG.</title><rect fill="#FFFFFF" height="183.7969" style="stroke:#181818;stroke-width:1;" width="10" x="47.3252" y="96.2344"/></g><g><title>car .FB_Car.</title><rect fill="#FFFFFF" height="71.2656" style="stroke:#181818;stroke-width:1;" width="10" x="359.0376" y="208.7656"/></g><g><title>MAIN .PRG.</title><rect fill="#000000" fill-opacity="0.00000" height="211.7969" width="8" x="48.3252" y="86.2344"/><line style="stroke:#181818;stroke-width:0.5;stroke-dasharray:5,5;" x1="52" x2="52" y1="86.2344" y2="298.0313"/></g><g><title>GVL</title><rect fill="#000000" fill-opacity="0.00000" height="211.7969" width="8" x="278.8379" y="86.2344"/><line style="stroke:#181818;stroke-width:0.5;stroke-dasharray:5,5;" x1="282.7251" x2="282.7251" y1="86.2344" y2="298.0313"/></g><g><title>car .FB_Car.</title><rect fill="#000000" fill-opacity="0.00000" height="211.7969" width="8" x="360.0376" y="86.2344"/><line style="stroke:#181818;stroke-width:0.5;stroke-dasharray:5,5;" x1="363.9507" x2="363.9507" y1="86.2344" y2="298.0313"/></g><g class="participant participant-head" data-participant="MAIN"><rect fill="#E2E2F0" height="30.2969" rx="2.5" ry="2.5" style="stroke:#181818;stroke-width:0.5;" width="94.6504" x="5" y="54.9375"/><text fill="#000000" font-family="sans-serif" font-size="14" lengthAdjust="spacing" textLength="80.6504" x="12" y="74.9326">MAIN (PRG)</text></g><g class="participant participant-tail" data-participant="MAIN"><rect fill="#E2E2F0" height="30.2969" rx="2.5" ry="2.5" style="stroke:#181818;stroke-width:0.5;" width="94.6504" x="5" y="297.0313"/><text fill="#000000" font-family="sans-serif" font-size="14" lengthAdjust="spacing" textLength="80.6504" x="12" y="317.0264">MAIN (PRG)</text></g><g class="participant participant-head" data-participant="GVL"><rect fill="#E2E2F0" height="30.2969" rx="2.5" ry="2.5" style="stroke:#181818;stroke-width:0.5;" width="42.2256" x="261.7251" y="54.9375"/><text fill="#000000" font-family="sans-serif" font-size="14" lengthAdjust="spacing" textLength="28.2256" x="268.7251" y="74.9326">GVL</text></g><g class="participant participant-tail" data-participant="GVL"><rect fill="#E2E2F0" height="30.2969" rx="2.5" ry="2.5" style="stroke:#181818;stroke-width:0.5;" width="42.2256" x="261.7251" y="297.0313"/><text fill="#000000" font-family="sans-serif" font-size="14" lengthAdjust="spacing" textLength="28.2256" x="268.7251" y="317.0264">GVL</text></g><g class="participant participant-head" data-participant="FB"><rect fill="#E2E2F0" height="30.2969" rx="2.5" ry="2.5" style="stroke:#181818;stroke-width:0.5;" width="100.1738" x="313.9507" y="54.9375"/><text fill="#000000" font-family="sans-serif" font-size="14" lengthAdjust="spacing" textLength="86.1738" x="320.9507" y="74.9326">car (FB_Car)</text></g><g class="participant participant-tail" data-participant="FB"><rect fill="#E2E2F0" height="30.2969" rx="2.5" ry="2.5" style="stroke:#181818;stroke-width:0.5;" width="100.1738" x="313.9507" y="297.0313"/><text fill="#000000" font-family="sans-serif" font-size="14" lengthAdjust="spacing" textLength="86.1738" x="320.9507" y="317.0264">car (FB_Car)</text></g><g><title>MAIN .PRG.</title><rect fill="#FFFFFF" height="183.7969" style="stroke:#181818;stroke-width:1;" width="10" x="47.3252" y="96.2344"/></g><g><title>car .FB_Car.</title><rect fill="#FFFFFF" height="71.2656" style="stroke:#181818;stroke-width:1;" width="10" x="359.0376" y="208.7656"/></g><g class="message" data-participant-1="MAIN" data-participant-2="GVL"><polygon fill="#181818" points="270.8379,113.3672,280.8379,117.3672,270.8379,121.3672,274.8379,117.3672" style="stroke:#181818;stroke-width:1;"/><line style="stroke:#181818;stroke-width:1;" x1="57.3252" x2="276.8379" y1="117.3672" y2="117.3672"/><text fill="#000000" font-family="sans-serif" font-size="13" lengthAdjust="spacing" textLength="57.0273" x="64.3252" y="112.3013">Step = 0</text></g><g class="message" data-participant-1="MAIN" data-participant-2="GVL"><polygon fill="#181818" points="270.8379,142.5,280.8379,146.5,270.8379,150.5,274.8379,146.5" style="stroke:#181818;stroke-width:1;"/><line style="stroke:#181818;stroke-width:1;" x1="57.3252" x2="276.8379" y1="146.5" y2="146.5"/><text fill="#000000" font-family="sans-serif" font-size="13" lengthAdjust="spacing" textLength="201.5127" x="64.3252" y="141.4341">Schrijf gvl.bStartDrive := TRUE</text></g><polygon fill="#FFF9C4" points="16,159.5,400,159.5,410,170.5,400,182.5,16,182.5,6,170.5,16,159.5" style="stroke:#181818;stroke-width:0.5;"/><text fill="#000000" font-family="sans-serif" font-size="13" lengthAdjust="spacing" textLength="207.5747" x="104.2749" y="175.5669">Aanroep van het Function Block</text><g class="message" data-participant-1="MAIN" data-participant-2="FB"><polygon fill="#181818" points="347.0376,204.7656,357.0376,208.7656,347.0376,212.7656,351.0376,208.7656" style="stroke:#181818;stroke-width:1;"/><line style="stroke:#181818;stroke-width:1;" x1="57.3252" x2="353.0376" y1="208.7656" y2="208.7656"/><text fill="#000000" font-family="sans-serif" font-size="13" lengthAdjust="spacing" textLength="277.0498" x="64.3252" y="203.6997">car(bStart := TRUE, TravelTime := T#12S)</text></g><g class="message" data-participant-1="FB" data-participant-2="FB"><line style="stroke:#181818;stroke-width:1;" x1="369.0376" x2="411.0376" y1="237.8984" y2="237.8984"/><line style="stroke:#181818;stroke-width:1;" x1="411.0376" x2="411.0376" y1="237.8984" y2="250.8984"/><line style="stroke:#181818;stroke-width:1;" x1="370.0376" x2="411.0376" y1="250.8984" y2="250.8984"/><polygon fill="#181818" points="380.0376,246.8984,370.0376,250.8984,380.0376,254.8984,376.0376,250.8984" style="stroke:#181818;stroke-width:1;"/><text fill="#000000" font-family="sans-serif" font-size="13" lengthAdjust="spacing" textLength="179.2642" x="376.0376" y="232.8325">Update interne timer logica</text></g><g class="message" data-participant-1="FB" data-participant-2="MAIN"><polygon fill="#000000" points="63.3252,276.0313,53.3252,280.0313,63.3252,284.0313,59.3252,280.0313" style="stroke:#000000;stroke-width:1;"/><line style="stroke:#000000;stroke-width:1;stroke-dasharray:2,2;" x1="57.3252" x2="363.0376" y1="280.0313" y2="280.0313"/><text fill="#000000" font-family="sans-serif" font-size="13" lengthAdjust="spacing" textLength="128.5908" x="69.3252" y="274.9653">Output: bcararrived</text></g><text fill="#888888" font-family="sans-serif" font-size="10" lengthAdjust="spacing" textLength="141.9531" x="434.3486" y="14.2822">TwinCAT Sequence Diagram</text><!--SRC=[NP1BJy9058NtyojEO5CIC6ZSs0GIA9QO-0ejRemnb-b0HuPf7QVrxtlR1XLMa_luphbdSaMPSaY_jOrcAHBrMIah5HQQTeuEmcjl528o1iKMFbU8AokzBYpcff1xz2Iv7eB4gnBZWH0bEQ-bBibwz1vcTuy8dbVBGG_qXQOyNLY-tBSJVay7h8eWdhz7v3esdWj1R5oJLvrGApwQDYn2j0TCC3vlozpfZorsjRdO99uj5axN2k44wMfzAqHk2nOiQlw4XXoo4Vfn7Dz4ro5cP5t1kZLPvCgVPHU_Nio4u9E3pkAeFaJgg5OcrOVEiNzvbGp-Od0c9e_ykioQfhPUEQlW6N8mnKvBQjT6h_sD8Rb_cxQNCl5K-RBo8JPiJQx9bObC_PV_NpRG3m00]--></g></svg>